<svg xmlns="http://www.w3.org/2000/svg" viewBox="0 0 1024 1024" role="img" aria-label="preactpress">
  <rect width="1024" height="1024" fill="#000"/>
  <g fill="#fff" transform="translate(0 1024) scale(0.1 -0.1)">
    <path d="M3030 7471 c-334 -72 -552 -188 -803 -427 -95 -90 -137 -140 -216
-255 -130 -192 -198 -350 -241 -563 l-30 -149 0 -1518 0 -1517 218 123 217
123 3 762 2 761 93 -85 c132 -122 201 -168 386 -257 147 -71 181 -83 319 -114
152 -34 161 -35 376 -35 252 0 351 14 516 74 211 76 347 153 505 287 126 107
196 184 287 319 142 209 209 361 253 574 22 104 25 144 25 331 0 241 -15 345
-75 517 -75 213 -182 392 -334 556 -163 178 -287 269 -501 370 -237 112 -357
139 -657 146 -202 6 -212 5 -343 -23z m595 -459 c140 -35 276 -96 389 -176 98
-69 256 -236 318 -336 146 -237 204 -564 146 -827 -45 -209 -170 -434 -320
-579 -101 -99 -268 -208 -392 -256 -193 -76 -457 -99 -663 -59 -285 55 -559
235 -727 478 -75 109 -152 284 -177 402 -28 138 -26 341 5 486 63 293 262 570
527 731 109 66 308 138 439 159 135 22 311 13 455 -23z"/>
    <path d="M6660 7475 c-212 -40 -459 -142 -615 -253 -38 -28 -126 -103 -195
-167 -97 -91 -145 -145 -213 -243 -150 -215 -218 -373 -261 -610 l-26 -140 0
-1510 0 -1510 212 117 c169 92 214 121 219 141 4 14 7 357 8 764 l1 738 73
-64 c124 -110 220 -174 388 -259 158 -78 288 -125 413 -148 77 -14 504 -14
582 0 175 31 451 143 596 240 91 61 244 196 320 280 168 190 275 393 343 651
44 166 46 180 52 353 5 165 3 192 -21 325 -21 120 -36 173 -90 306 -90 225
-180 362 -347 530 -169 172 -321 274 -544 367 -210 87 -298 104 -567 111 -185
5 -214 3 -328 -19z m555 -458 c143 -33 275 -92 405 -183 126 -87 204 -166 294
-296 133 -193 196 -401 196 -637 -2 -384 -185 -724 -510 -944 -200 -135 -411
-196 -676 -197 -167 0 -276 24 -446 98 -286 124 -476 314 -599 597 -68 158
-89 269 -89 467 0 113 5 150 29 243 56 220 180 428 340 573 111 100 315 218
442 256 199 60 415 68 614 23z"/>
  </g>
</svg>
